<?xml version="1.0" encoding="utf-8"?>
<!-- Generator: Adobe Illustrator 16.0.4, SVG Export Plug-In . SVG Version: 6.00 Build 0)  -->
<!DOCTYPE svg PUBLIC "-//W3C//DTD SVG 1.1//EN" "http://www.w3.org/Graphics/SVG/1.1/DTD/svg11.dtd">
<svg version="1.1" id="Layer_1" xmlns="http://www.w3.org/2000/svg" xmlns:xlink="http://www.w3.org/1999/xlink" x="0px" y="0px"
	 width="10px" height="10px" viewBox="0 0 10 10" enable-background="new 0 0 10 10" xml:space="preserve">
<g id="Layer_3" display="none">
</g>
<g id="in" display="none">
	<polygon display="inline" fill="#FFFFFF" points="7.979,4.512 7.979,5.512 9,5.512 9,9 1,9 1,5.512 2.005,5.512 2.005,4.512 
		0,4.512 0,10 10,10 10,4.512 	"/>
	<g display="inline">
		<g>
			<line fill="none" stroke="#FFFFFF" stroke-miterlimit="10" x1="5" y1="0.576" x2="5" y2="5.125"/>
			<g>
				<polygon fill="#FFFFFF" points="3.005,4.541 5,7.995 6.994,4.541 				"/>
			</g>
		</g>
	</g>
</g>
<polygon fill="#FFFFFF" points="7.978,4.512 7.978,5.512 9,5.512 9,9 1,9 1,5.512 2.005,5.512 2.005,4.512 0,4.512 0,10 10,10 
	10,4.512 "/>
<g>
	<g>
		<line fill="none" stroke="#FFFFFF" stroke-miterlimit="10" x1="5" y1="0.576" x2="5" y2="5.125"/>
		<g>
			<polygon fill="#FFFFFF" points="3.005,4.541 5,7.995 6.994,4.541 			"/>
		</g>
	</g>
</g>
</svg>
