<?xml version="1.0" encoding="utf-8"?>
<!-- Generator: Adobe Illustrator 16.0.4, SVG Export Plug-In . SVG Version: 6.00 Build 0)  -->
<!DOCTYPE svg PUBLIC "-//W3C//DTD SVG 1.1//EN" "http://www.w3.org/Graphics/SVG/1.1/DTD/svg11.dtd">
<svg version="1.1" id="Layer_1" xmlns="http://www.w3.org/2000/svg" xmlns:xlink="http://www.w3.org/1999/xlink" x="0px" y="0px"
	 width="315.444px" height="65.016px" viewBox="0 1.129 315.444 65.016" enable-background="new 0 1.129 315.444 65.016"
	 xml:space="preserve">
<g>
	<g>
		<path d="M41.125,8.841c0.533,0,0.999,0.188,1.398,0.566c0.377,0.377,0.566,0.844,0.566,1.398v29.324
			c0,4.505-1.598,8.354-4.793,11.551c-3.196,3.195-7.045,4.793-11.55,4.793s-8.354-1.598-11.55-4.793
			c-3.195-3.196-4.793-7.046-4.793-11.551V10.805c0-0.555,0.189-1.021,0.566-1.398c0.377-0.378,0.844-0.566,1.398-0.566
			c0.533,0,0.987,0.188,1.365,0.566c0.376,0.377,0.566,0.843,0.566,1.398v29.324c0,3.439,1.221,6.368,3.662,8.787
			c2.418,2.441,5.347,3.66,8.787,3.66c3.417,0,6.346-1.219,8.787-3.66c2.442-2.419,3.662-5.348,3.662-8.787V10.805
			c0-0.555,0.188-1.021,0.566-1.398C40.137,9.03,40.593,8.841,41.125,8.841z"/>
		<path d="M74.078,54.474c0,0.556-0.189,1.031-0.566,1.432c-0.399,0.377-0.866,0.566-1.398,0.566c-0.556,0-1.032-0.189-1.432-0.566
			c-0.378-0.399-0.566-0.876-0.566-1.432V10.838c0-0.999,0.488-1.631,1.465-1.897c0.954-0.266,1.698,0.033,2.23,0.898l19.837,32.785
			l19.837-32.785c0.533-0.865,1.275-1.165,2.23-0.898c0.977,0.266,1.465,0.898,1.465,1.897v43.636c0,0.556-0.2,1.031-0.6,1.432
			c-0.377,0.377-0.844,0.566-1.398,0.566c-0.533,0-0.998-0.189-1.398-0.566c-0.377-0.399-0.566-0.876-0.566-1.432V17.961
			L95.346,47.484l-0.033,0.034v0.032c-0.045,0.046-0.088,0.102-0.133,0.168c-0.066,0.066-0.111,0.11-0.133,0.132
			c-0.045,0.045-0.088,0.089-0.133,0.134c-0.067,0.044-0.122,0.088-0.167,0.133c-0.111,0.065-0.133,0.078-0.066,0.033
			c0.021-0.022-0.012-0.012-0.1,0.032c-0.066,0.046-0.133,0.079-0.2,0.101c-0.045,0.023-0.1,0.045-0.166,0.066
			c-0.066,0.022-0.133,0.033-0.2,0.033c-0.045,0.021-0.1,0.034-0.166,0.034c-0.066,0.021-0.133,0.032-0.2,0.032
			s-0.133-0.011-0.2-0.032c-0.066,0-0.122-0.013-0.166-0.034c-0.066,0-0.133-0.011-0.2-0.033c-0.066-0.021-0.122-0.043-0.166-0.066
			c-0.067-0.021-0.133-0.055-0.2-0.101c-0.021,0-0.045,0-0.066,0c0-0.021-0.012-0.032-0.034-0.032
			c0.067,0.045,0.044,0.032-0.066-0.033c-0.045-0.045-0.1-0.089-0.167-0.133c-0.045-0.045-0.088-0.089-0.133-0.134
			c-0.044-0.045-0.088-0.088-0.133-0.132c-0.045-0.066-0.088-0.122-0.133-0.168v-0.032l-0.033-0.034L74.078,17.961V54.474z"/>
		<path d="M175.065,36.934c-1.244-1.953-2.94-3.483-5.093-4.593c1.887-1.198,3.362-2.74,4.428-4.626
			c1.109-1.931,1.664-4.005,1.664-6.224c0-3.572-1.354-6.602-4.061-9.087c-2.708-2.463-6.025-3.695-9.953-3.695l-15.345,0.067
			c-0.556,0-1.032,0.2-1.432,0.6c-0.377,0.377-0.566,0.843-0.566,1.398v43.703c0,0.555,0.2,1.021,0.6,1.398
			c0.376,0.398,0.842,0.599,1.398,0.599h16.21c3.884,0,7.189-1.275,9.919-3.827c2.752-2.53,4.127-5.581,4.127-9.152
			C176.961,41.116,176.33,38.931,175.065,36.934z M148.703,12.768l13.347-0.066c2.818,0,5.192,0.844,7.123,2.53
			c1.93,1.709,2.896,3.794,2.896,6.257c0,2.529-0.978,4.693-2.928,6.491c-1.954,1.797-4.317,2.696-7.09,2.696l-13.347,0.033V12.768
			L148.703,12.768z M170.038,49.848c-1.975,1.752-4.349,2.629-7.123,2.629h-14.211V34.67h13.346c0.244,0,0.467,0,0.667,0
			c0.088,0,0.177,0,0.265,0c2.796,0,5.16,0.854,7.091,2.562c1.931,1.687,2.895,3.773,2.895,6.257
			C172.967,45.976,171.991,48.094,170.038,49.848z"/>
		<path d="M284.538,12.702h-13.146c-0.555,0-1.031-0.188-1.432-0.566c-0.377-0.377-0.565-0.843-0.565-1.398
			c0-0.555,0.188-1.021,0.565-1.398c0.399-0.399,0.877-0.6,1.432-0.6h30.256c0.556,0,1.021,0.199,1.398,0.6
			c0.399,0.377,0.6,0.843,0.6,1.398c0,0.554-0.199,1.021-0.6,1.398c-0.377,0.378-0.843,0.566-1.398,0.566h-13.146v41.772
			c0,0.556-0.189,1.031-0.566,1.432c-0.399,0.377-0.877,0.566-1.431,0.566c-0.533,0-0.998-0.189-1.398-0.566
			c-0.379-0.399-0.567-0.876-0.567-1.432V12.702L284.538,12.702z"/>
	</g>
</g>
<path d="M254.986,33.233c-0.015-0.122-0.042-0.24-0.083-0.357c-0.009-0.022-0.008-0.046-0.017-0.068
	c-0.008-0.019-0.021-0.033-0.029-0.051c-0.048-0.109-0.108-0.209-0.18-0.307c-0.03-0.042-0.06-0.083-0.093-0.121
	c-0.034-0.038-0.055-0.083-0.091-0.117c-4.401-4.173-7.841-12.46-7.666-18.475c0.001-0.03-0.01-0.058-0.011-0.087
	c-0.002-0.103-0.016-0.203-0.037-0.305c-0.013-0.062-0.027-0.122-0.049-0.182c-0.015-0.044-0.016-0.091-0.034-0.135
	c-0.023-0.054-0.062-0.096-0.09-0.146c-0.028-0.052-0.057-0.1-0.091-0.147c-0.064-0.093-0.136-0.174-0.217-0.25
	c-0.035-0.033-0.069-0.064-0.107-0.094c-0.093-0.073-0.191-0.134-0.297-0.187c-0.026-0.012-0.045-0.032-0.07-0.043
	c-0.021-0.009-0.044-0.009-0.064-0.017c-0.101-0.039-0.206-0.064-0.315-0.083c-0.062-0.011-0.123-0.02-0.187-0.023
	c-0.045-0.003-0.086-0.018-0.133-0.017c-5.991,0.17-14.394-3.336-18.487-7.651c-0.017-0.017-0.04-0.027-0.057-0.045
	c-0.083-0.08-0.174-0.149-0.272-0.212c-0.041-0.026-0.081-0.051-0.124-0.072c-0.048-0.025-0.087-0.062-0.14-0.083
	c-0.062-0.024-0.128-0.028-0.193-0.045c-0.04-0.01-0.079-0.021-0.12-0.028c-0.123-0.022-0.244-0.031-0.366-0.025
	c-0.039,0.002-0.076,0.004-0.116,0.008c-0.126,0.014-0.249,0.043-0.369,0.086c-0.02,0.007-0.043,0.006-0.062,0.015
	c-0.016,0.006-0.028,0.019-0.045,0.025c-0.114,0.05-0.22,0.113-0.321,0.189c-0.035,0.027-0.071,0.051-0.104,0.082
	c-0.04,0.035-0.086,0.057-0.123,0.096c-4.169,4.408-12.392,7.82-18.473,7.665c-0.024,0-0.045,0.007-0.068,0.008
	c-0.121,0-0.24,0.017-0.361,0.044c-0.049,0.01-0.096,0.021-0.141,0.037c-0.05,0.016-0.101,0.017-0.148,0.038
	c-0.058,0.025-0.104,0.067-0.158,0.099c-0.045,0.025-0.087,0.051-0.128,0.08c-0.103,0.071-0.19,0.151-0.272,0.24
	c-0.02,0.023-0.041,0.045-0.059,0.069c-0.092,0.113-0.166,0.234-0.226,0.367c-0.004,0.007-0.01,0.013-0.014,0.021
	c-0.002,0.006-0.002,0.014-0.005,0.019c-0.057,0.137-0.093,0.277-0.111,0.426c-0.004,0.023-0.007,0.045-0.009,0.067
	c-0.006,0.062-0.024,0.12-0.022,0.183c0.162,6.065-3.267,14.356-7.643,18.483c-0.028,0.027-0.045,0.062-0.071,0.091
	c-0.058,0.062-0.108,0.128-0.156,0.199c-0.045,0.066-0.085,0.132-0.12,0.204c-0.018,0.038-0.047,0.066-0.062,0.106
	c-0.018,0.047-0.02,0.095-0.033,0.144c-0.021,0.067-0.036,0.134-0.048,0.204c-0.017,0.099-0.022,0.198-0.021,0.299
	c0.002,0.056,0.005,0.112,0.014,0.169c0.013,0.114,0.039,0.221,0.075,0.328c0.009,0.026,0.008,0.055,0.019,0.081
	c0.008,0.021,0.024,0.037,0.034,0.058c0.047,0.106,0.105,0.203,0.174,0.297c0.03,0.042,0.06,0.083,0.094,0.122
	c0.033,0.039,0.056,0.084,0.093,0.12c4.402,4.175,7.841,12.462,7.666,18.476c-0.001,0.023,0.009,0.045,0.009,0.067
	c0,0.121,0.017,0.236,0.044,0.355c0.01,0.043,0.019,0.086,0.032,0.126c0.017,0.052,0.02,0.108,0.041,0.159
	c0.029,0.066,0.075,0.119,0.11,0.179c0.018,0.031,0.036,0.061,0.056,0.091c0.074,0.109,0.158,0.206,0.256,0.294
	c0.021,0.02,0.043,0.041,0.065,0.061c0.107,0.086,0.222,0.155,0.346,0.214c0.017,0.008,0.027,0.021,0.046,0.029
	c0.015,0.007,0.029,0.008,0.045,0.013c0.078,0.033,0.157,0.058,0.239,0.077c0.061,0.014,0.121,0.019,0.183,0.027
	c0.062,0.007,0.121,0.025,0.186,0.025c0.012,0,0.022,0,0.035,0c0.14-0.003,0.279-0.005,0.421-0.005
	c5.962,0,14.071,3.436,18.076,7.657c0.033,0.036,0.072,0.061,0.107,0.093c0.033,0.029,0.064,0.057,0.099,0.085
	c0.115,0.086,0.235,0.16,0.367,0.214c0.007,0.003,0.012,0.009,0.018,0.012c0.086,0.034,0.174,0.057,0.262,0.077
	c0.008,0.002,0.016,0.005,0.021,0.007c0.11,0.021,0.221,0.034,0.331,0.034c0.077,0,0.153-0.013,0.228-0.022
	c0.029-0.005,0.058-0.004,0.086-0.009c0.066-0.014,0.13-0.037,0.194-0.057c0.036-0.011,0.071-0.018,0.107-0.031
	c0.003-0.001,0.005-0.004,0.008-0.005c0.139-0.057,0.269-0.134,0.39-0.227c0.024-0.021,0.049-0.042,0.073-0.063
	c0.041-0.036,0.085-0.066,0.122-0.105c4.17-4.408,12.367-7.84,18.458-7.662c0.024,0.002,0.049,0.007,0.074,0.007
	c0.147,0,0.295-0.028,0.44-0.067c0.01-0.003,0.02-0.006,0.029-0.009c0.062-0.019,0.125-0.033,0.187-0.059
	c0.053-0.022,0.093-0.062,0.143-0.089c0.057-0.031,0.111-0.063,0.162-0.101c0.088-0.062,0.164-0.133,0.237-0.21
	c0.031-0.033,0.062-0.067,0.09-0.104c0.082-0.103,0.147-0.212,0.202-0.329c0.007-0.016,0.019-0.025,0.024-0.042
	c0.005-0.012,0.005-0.024,0.01-0.035c0.052-0.125,0.084-0.254,0.103-0.389c0.005-0.036,0.012-0.072,0.014-0.109
	c0.004-0.055,0.022-0.108,0.021-0.164c-0.162-6.064,3.267-14.357,7.644-18.483c0.021-0.02,0.031-0.045,0.051-0.066
	c0.076-0.078,0.14-0.161,0.2-0.253c0.03-0.049,0.059-0.096,0.085-0.147c0.023-0.046,0.058-0.082,0.076-0.129
	c0.022-0.059,0.025-0.119,0.041-0.177c0.015-0.049,0.026-0.097,0.036-0.148c0.02-0.118,0.027-0.229,0.023-0.348
	C254.993,33.319,254.991,33.277,254.986,33.233z M223.769,9.175v20.23l-14.296-14.297C214.414,14.386,219.772,12.155,223.769,9.175z
	 M207.103,17.447l14.314,14.311h-20.228C204.147,27.768,206.374,22.382,207.103,17.447z M201.182,35.087h20.241L207.119,49.39
	C206.388,44.475,204.153,39.093,201.182,35.087z M223.773,57.686c-3.989-2.939-9.405-5.189-14.319-5.93l14.319-14.319V57.686z
	 M225.436,35.059c-0.899,0-1.63-0.73-1.63-1.629s0.73-1.628,1.63-1.628c0.898,0,1.629,0.729,1.629,1.628
	S226.334,35.059,225.436,35.059z M227.095,9.163c3.988,2.937,9.404,5.186,14.32,5.928l-14.32,14.32V9.163z M227.099,57.667V37.436
	l14.295,14.295C236.457,52.452,231.099,54.683,227.099,57.667z M243.765,49.395l-14.313-14.312l20.228,0.002
	C246.72,39.074,244.493,44.46,243.765,49.395z M229.451,31.758l14.301-14.302c0.73,4.914,2.965,10.298,5.938,14.302H229.451z"/>
</svg>
