<?xml version="1.0" encoding="utf-8"?>
<!-- Generator: Adobe Illustrator 16.0.4, SVG Export Plug-In . SVG Version: 6.00 Build 0)  -->
<!DOCTYPE svg PUBLIC "-//W3C//DTD SVG 1.1//EN" "http://www.w3.org/Graphics/SVG/1.1/DTD/svg11.dtd">
<svg version="1.1" id="Layer_1" xmlns="http://www.w3.org/2000/svg" xmlns:xlink="http://www.w3.org/1999/xlink" x="0px" y="0px"
	 width="315.444px" height="65.016px" viewBox="0 1.129 315.444 65.016" enable-background="new 0 1.129 315.444 65.016"
	 xml:space="preserve">
<g>
	<g>
		<path d="M46.92,10.071c0.506,0,0.949,0.179,1.329,0.538c0.358,0.358,0.538,0.801,0.538,1.328v27.858
			c0,4.279-1.518,7.937-4.554,10.974c-3.036,3.035-6.693,4.553-10.973,4.553c-4.279,0-7.937-1.518-10.973-4.553
			c-3.036-3.037-4.554-6.694-4.554-10.974V11.936c0-0.527,0.18-0.97,0.538-1.328c0.358-0.359,0.802-0.538,1.329-0.538
			c0.506,0,0.938,0.179,1.296,0.538c0.358,0.358,0.538,0.801,0.538,1.328v27.858c0,3.268,1.16,6.05,3.479,8.348
			c2.297,2.319,5.08,3.477,8.347,3.477c3.246,0,6.029-1.157,8.348-3.477c2.32-2.298,3.479-5.08,3.479-8.348V11.936
			c0-0.527,0.179-0.97,0.538-1.328C45.981,10.25,46.415,10.071,46.92,10.071z"/>
		<path d="M78.226,53.422c0,0.527-0.18,0.979-0.538,1.359c-0.379,0.357-0.823,0.538-1.328,0.538c-0.528,0-0.98-0.181-1.36-0.538
			c-0.359-0.379-0.538-0.832-0.538-1.359V11.967c0-0.949,0.463-1.55,1.392-1.802c0.906-0.252,1.613,0.032,2.119,0.854l18.846,31.146
			l18.845-31.146c0.507-0.822,1.212-1.106,2.119-0.854c0.928,0.252,1.392,0.854,1.392,1.802v41.455c0,0.527-0.19,0.979-0.57,1.359
			c-0.358,0.357-0.802,0.538-1.329,0.538c-0.506,0-0.948-0.181-1.328-0.538c-0.359-0.379-0.538-0.832-0.538-1.359V18.734
			L98.43,46.781l-0.032,0.032v0.031c-0.042,0.043-0.083,0.096-0.126,0.159c-0.063,0.063-0.106,0.104-0.126,0.126
			c-0.043,0.042-0.083,0.084-0.126,0.127c-0.063,0.041-0.116,0.083-0.158,0.126c-0.105,0.062-0.126,0.074-0.063,0.031
			c0.021-0.021-0.011-0.011-0.095,0.03c-0.063,0.044-0.126,0.076-0.189,0.096c-0.043,0.022-0.095,0.043-0.158,0.063
			c-0.063,0.021-0.127,0.031-0.19,0.031c-0.042,0.021-0.095,0.032-0.158,0.032c-0.063,0.021-0.126,0.031-0.189,0.031
			c-0.063,0-0.127-0.01-0.19-0.031c-0.063,0-0.116-0.012-0.158-0.032c-0.063,0-0.126-0.01-0.19-0.031
			c-0.063-0.021-0.115-0.041-0.158-0.063c-0.063-0.02-0.126-0.052-0.189-0.096c-0.021,0-0.042,0-0.063,0
			c0-0.02-0.011-0.03-0.032-0.03c0.063,0.043,0.042,0.03-0.062-0.031c-0.042-0.043-0.095-0.085-0.158-0.126
			c-0.042-0.043-0.083-0.085-0.126-0.127c-0.042-0.043-0.083-0.084-0.126-0.126c-0.042-0.063-0.083-0.116-0.126-0.159v-0.031
			l-0.032-0.032L78.226,18.734V53.422z"/>
		<path d="M174.163,36.758c-1.182-1.855-2.793-3.309-4.839-4.363c1.793-1.138,3.194-2.603,4.207-4.395
			c1.053-1.834,1.581-3.805,1.581-5.913c0-3.394-1.286-6.271-3.857-8.632c-2.573-2.34-5.724-3.51-9.456-3.51l-14.577,0.063
			c-0.528,0-0.98,0.19-1.36,0.57c-0.358,0.358-0.538,0.801-0.538,1.328v41.518c0,0.527,0.19,0.971,0.57,1.329
			c0.357,0.378,0.8,0.568,1.328,0.568h15.399c3.689,0,6.83-1.211,9.423-3.636c2.614-2.403,3.921-5.302,3.921-8.694
			C175.964,40.731,175.364,38.655,174.163,36.758z M149.119,13.801l12.68-0.063c2.678,0,4.933,0.802,6.767,2.403
			c1.833,1.624,2.751,3.604,2.751,5.944c0,2.403-0.929,4.459-2.782,6.167c-1.856,1.708-4.102,2.562-6.736,2.562l-12.68,0.031V13.801
			L149.119,13.801z M169.387,49.027c-1.875,1.665-4.131,2.497-6.767,2.497H149.12V34.608h12.679c0.232,0,0.444,0,0.633,0
			c0.084,0,0.168,0,0.252,0c2.657,0,4.902,0.811,6.736,2.434c1.834,1.603,2.75,3.584,2.75,5.945
			C172.17,45.348,171.243,47.361,169.387,49.027z"/>
		<path d="M278.163,13.738h-12.49c-0.526,0-0.979-0.179-1.359-0.538c-0.358-0.358-0.537-0.8-0.537-1.328
			c0-0.527,0.179-0.969,0.537-1.328c0.379-0.38,0.833-0.57,1.359-0.57h28.744c0.527,0,0.97,0.189,1.328,0.57
			c0.379,0.358,0.569,0.801,0.569,1.328s-0.189,0.97-0.569,1.328c-0.358,0.359-0.801,0.538-1.328,0.538h-12.49v39.685
			c0,0.527-0.18,0.979-0.537,1.359c-0.38,0.357-0.834,0.538-1.359,0.538c-0.507,0-0.949-0.181-1.329-0.538
			c-0.36-0.379-0.538-0.832-0.538-1.359V13.738L278.163,13.738z"/>
	</g>
</g>
<path d="M250.089,33.243c-0.015-0.116-0.041-0.228-0.08-0.34c-0.008-0.021-0.007-0.044-0.016-0.064
	c-0.007-0.018-0.02-0.031-0.027-0.048c-0.045-0.104-0.104-0.199-0.171-0.292c-0.028-0.04-0.057-0.079-0.088-0.115
	c-0.032-0.036-0.052-0.078-0.087-0.111c-4.181-3.964-7.448-11.837-7.282-17.551c0.001-0.029-0.009-0.055-0.011-0.083
	c-0.002-0.098-0.014-0.193-0.035-0.29c-0.012-0.059-0.025-0.116-0.046-0.173c-0.015-0.042-0.015-0.087-0.032-0.128
	c-0.022-0.051-0.059-0.091-0.086-0.138c-0.026-0.049-0.054-0.095-0.086-0.14c-0.061-0.088-0.129-0.165-0.206-0.238
	c-0.033-0.031-0.065-0.061-0.103-0.089c-0.088-0.07-0.182-0.127-0.281-0.177c-0.025-0.012-0.043-0.031-0.066-0.041
	c-0.02-0.009-0.043-0.009-0.062-0.016c-0.095-0.037-0.195-0.061-0.299-0.079c-0.06-0.01-0.117-0.019-0.178-0.022
	c-0.043-0.003-0.081-0.017-0.126-0.016c-5.691,0.162-13.674-3.169-17.563-7.269c-0.016-0.016-0.037-0.026-0.053-0.042
	c-0.079-0.076-0.166-0.142-0.26-0.202c-0.039-0.025-0.076-0.048-0.117-0.068c-0.045-0.023-0.082-0.059-0.133-0.078
	c-0.059-0.023-0.121-0.027-0.184-0.043c-0.038-0.01-0.075-0.02-0.114-0.026c-0.116-0.021-0.231-0.029-0.348-0.024
	c-0.037,0.001-0.072,0.003-0.11,0.007c-0.119,0.013-0.236,0.041-0.352,0.082c-0.018,0.007-0.04,0.006-0.059,0.014
	c-0.016,0.006-0.027,0.018-0.043,0.024c-0.108,0.048-0.209,0.107-0.305,0.179c-0.033,0.026-0.068,0.049-0.1,0.078
	c-0.038,0.033-0.082,0.054-0.117,0.091c-3.96,4.188-11.771,7.429-17.549,7.282c-0.023,0-0.043,0.007-0.064,0.008
	c-0.115,0-0.229,0.016-0.344,0.042c-0.047,0.01-0.091,0.021-0.133,0.035c-0.048,0.015-0.096,0.016-0.142,0.036
	c-0.055,0.024-0.099,0.064-0.15,0.094c-0.042,0.024-0.083,0.048-0.122,0.076c-0.097,0.068-0.18,0.144-0.258,0.228
	c-0.02,0.022-0.039,0.043-0.057,0.066c-0.087,0.108-0.157,0.223-0.214,0.349c-0.003,0.007-0.009,0.012-0.013,0.021
	c-0.002,0.005-0.002,0.013-0.005,0.018c-0.054,0.13-0.088,0.263-0.106,0.405c-0.003,0.022-0.006,0.043-0.008,0.064
	c-0.006,0.059-0.023,0.114-0.021,0.173c0.154,5.762-3.104,13.639-7.26,17.559c-0.027,0.025-0.043,0.059-0.068,0.086
	c-0.055,0.059-0.103,0.122-0.148,0.189c-0.043,0.062-0.08,0.125-0.113,0.193c-0.018,0.036-0.045,0.063-0.059,0.101
	c-0.018,0.045-0.02,0.091-0.031,0.137c-0.02,0.064-0.035,0.127-0.047,0.193c-0.016,0.094-0.021,0.188-0.02,0.284
	c0.002,0.053,0.004,0.106,0.013,0.161c0.013,0.108,0.037,0.209,0.071,0.312c0.009,0.025,0.008,0.053,0.018,0.077
	c0.008,0.02,0.023,0.035,0.033,0.055c0.044,0.101,0.1,0.193,0.164,0.283c0.029,0.04,0.057,0.079,0.09,0.115
	c0.031,0.037,0.053,0.08,0.088,0.114c4.182,3.966,7.449,11.839,7.283,17.552c-0.002,0.021,0.008,0.042,0.008,0.063
	c0,0.115,0.016,0.225,0.042,0.338c0.009,0.04,0.018,0.081,0.03,0.12c0.016,0.049,0.02,0.103,0.039,0.15
	c0.027,0.063,0.072,0.113,0.105,0.17c0.016,0.029,0.033,0.058,0.053,0.086c0.07,0.104,0.15,0.196,0.242,0.279
	c0.021,0.02,0.041,0.039,0.062,0.058c0.102,0.082,0.211,0.147,0.328,0.204c0.016,0.007,0.026,0.02,0.044,0.027
	c0.015,0.006,0.028,0.008,0.043,0.012c0.074,0.031,0.149,0.055,0.228,0.073c0.057,0.013,0.115,0.018,0.174,0.026
	c0.059,0.006,0.114,0.023,0.176,0.023c0.011,0,0.021,0,0.033,0c0.133-0.002,0.266-0.004,0.4-0.004
	c5.663,0,13.367,3.264,17.172,7.273c0.031,0.035,0.068,0.059,0.102,0.089c0.031,0.028,0.062,0.054,0.094,0.081
	c0.109,0.081,0.225,0.152,0.35,0.203c0.006,0.002,0.011,0.008,0.016,0.011c0.082,0.032,0.166,0.054,0.25,0.073
	c0.007,0.002,0.014,0.005,0.02,0.006c0.105,0.021,0.21,0.033,0.314,0.033c0.074,0,0.146-0.012,0.217-0.021
	c0.027-0.004,0.055-0.004,0.081-0.008c0.063-0.014,0.124-0.035,0.185-0.055c0.035-0.01,0.068-0.016,0.102-0.029
	c0.004-0.001,0.006-0.004,0.008-0.004c0.132-0.055,0.256-0.128,0.371-0.216c0.022-0.021,0.046-0.04,0.068-0.061
	c0.039-0.034,0.082-0.063,0.117-0.101c3.961-4.188,11.748-7.447,17.535-7.278c0.022,0.002,0.046,0.007,0.07,0.007
	c0.14,0,0.279-0.027,0.418-0.064c0.01-0.003,0.019-0.006,0.027-0.008c0.061-0.018,0.119-0.032,0.178-0.057
	c0.05-0.021,0.088-0.059,0.135-0.084c0.055-0.029,0.106-0.061,0.154-0.096c0.084-0.059,0.156-0.126,0.226-0.199
	c0.03-0.031,0.059-0.064,0.085-0.099c0.078-0.097,0.141-0.201,0.192-0.312c0.007-0.015,0.019-0.024,0.023-0.04
	c0.005-0.011,0.005-0.023,0.009-0.033c0.05-0.119,0.08-0.241,0.098-0.369c0.005-0.035,0.012-0.068,0.014-0.104
	c0.004-0.053,0.021-0.104,0.02-0.156c-0.154-5.762,3.103-13.639,7.261-17.559c0.02-0.019,0.03-0.043,0.048-0.063
	c0.072-0.074,0.133-0.152,0.191-0.241c0.027-0.046,0.055-0.091,0.08-0.14c0.021-0.044,0.055-0.078,0.072-0.123
	c0.021-0.056,0.023-0.112,0.039-0.168c0.014-0.047,0.025-0.092,0.034-0.141c0.019-0.112,0.026-0.218,0.022-0.331
	C250.095,33.325,250.093,33.285,250.089,33.243z M220.431,10.388v19.219l-13.58-13.583
	C211.544,15.338,216.636,13.219,220.431,10.388z M204.599,18.246l13.599,13.596h-19.216
	C201.792,28.05,203.907,22.935,204.599,18.246z M198.974,35.004h19.229l-13.589,13.588C203.919,43.922,201.797,38.81,198.974,35.004
	z M220.437,56.473c-3.791-2.793-8.936-4.93-13.604-5.633l13.604-13.604V56.473z M222.015,34.978c-0.854,0-1.548-0.693-1.548-1.548
	s0.694-1.547,1.548-1.547s1.548,0.693,1.548,1.547S222.868,34.978,222.015,34.978z M223.591,10.376
	c3.789,2.79,8.935,4.926,13.604,5.631l-13.604,13.604V10.376z M223.595,56.455v-19.22l13.58,13.581
	C232.485,51.5,227.396,53.62,223.595,56.455z M239.428,48.596L225.829,35l19.217,0.002C242.235,38.792,240.12,43.909,239.428,48.596
	z M225.829,31.841l13.586-13.587c0.694,4.668,2.816,9.783,5.643,13.587H225.829z"/>
</svg>
